<svg width="343" height="48" viewBox="0 0 343 48" fill="none" xmlns="http://www.w3.org/2000/svg">
<rect width="343" height="48" rx="4" fill="#FEE500"/>
<path d="M129.841 20.032C129.827 24.33 127.685 27.088 124.241 28.824L123.471 27.872C125.403 26.99 126.943 25.674 127.811 23.952L123.891 24.372L123.667 23.28L128.217 22.93C128.399 22.356 128.511 21.74 128.539 21.082H124.157V20.032H129.841ZM132.935 18.744V23.672H134.881V24.694H132.935V30.98H131.703V18.744H132.935ZM141.954 20.032C141.94 24.33 139.798 27.088 136.354 28.824L135.584 27.872C137.516 26.99 139.056 25.674 139.924 23.952L136.004 24.372L135.78 23.28L140.33 22.93C140.512 22.356 140.624 21.74 140.652 21.082H136.27V20.032H141.954ZM145.048 18.744V23.672H146.994V24.694H145.048V30.98H143.816V18.744H145.048ZM157.792 22.902C157.792 24.806 156.238 26.122 153.844 26.304V28.376H158.758V29.398H147.712V28.376H152.598V26.29C150.218 26.094 148.678 24.806 148.678 22.902C148.678 20.858 150.498 19.5 153.228 19.5C155.986 19.5 157.792 20.858 157.792 22.902ZM156.518 22.902C156.518 21.516 155.216 20.536 153.228 20.536C151.254 20.536 149.952 21.516 149.952 22.902C149.952 24.302 151.254 25.268 153.228 25.268C155.202 25.268 156.518 24.302 156.518 22.902ZM169.485 24.092H165.957V25.24H170.871V26.248H159.825V25.24H164.711V24.092H161.211V19.248H169.429V20.242H162.457V21.18H169.247V22.146H162.457V23.098H169.485V24.092ZM161.099 27.242H169.429V31.036H168.183V28.25H161.099V27.242ZM182.984 29.328H171.938V28.32H182.984V29.328ZM181.878 22.958C181.878 24.848 180.114 26.136 177.454 26.136C174.808 26.136 173.058 24.848 173.058 22.958C173.058 21.082 174.808 19.78 177.454 19.78C180.128 19.78 181.878 21.082 181.878 22.958ZM180.618 22.958C180.618 21.726 179.372 20.872 177.454 20.872C175.564 20.872 174.318 21.726 174.318 22.958C174.318 24.204 175.564 25.044 177.454 25.044C179.358 25.044 180.618 24.204 180.618 22.958ZM195.097 29.426H184.051V28.418H188.923V26.486H185.381V22.552H192.493V20.76H185.353V19.752H193.725V23.56H186.613V25.478H194.061V26.486H190.169V28.418H195.097V29.426ZM209.964 30.98H208.732V18.744H209.964V30.98ZM207.276 27.116L206.534 28.04C205.442 27.284 204.028 25.828 203.58 24.4C203.146 25.898 201.942 27.452 200.556 28.362L199.786 27.452C201.62 26.29 202.922 24.162 202.922 21.908V19.822H204.21V21.852C204.21 24.148 205.582 26.136 207.276 27.116ZM212.054 20.606V19.584H218.732V20.606H216.058V20.942C216.058 22.678 217.528 24.036 218.914 24.456L218.228 25.45C217.136 25.016 215.946 23.966 215.442 22.846C215.036 24.022 213.72 25.268 212.46 25.786L211.732 24.82C213.314 24.246 214.798 22.678 214.798 20.97V20.606H212.054ZM213.482 26.598H221.406V30.994H220.174V27.62H213.482V26.598ZM223.226 23.014H221.406V25.954H220.16V18.744H221.406V21.978H223.226V23.014ZM235.465 24.876H233.519V30.98H232.273V18.744H233.519V23.84H235.465V24.876ZM229.473 20.55H225.819V19.542H229.473V20.55ZM231.251 22.65H223.999V21.656H231.251V22.65ZM230.565 25.926C230.565 27.368 229.417 28.488 227.681 28.488C225.945 28.488 224.783 27.396 224.783 25.926C224.783 24.484 225.945 23.336 227.681 23.336C229.417 23.336 230.565 24.456 230.565 25.926ZM229.347 25.926C229.347 25.016 228.633 24.372 227.681 24.372C226.729 24.372 226.029 25.016 226.029 25.926C226.029 26.822 226.715 27.452 227.681 27.452C228.689 27.452 229.347 26.822 229.347 25.926ZM246.22 30.98H244.974V18.744H246.22V30.98ZM242.636 20.046C242.566 23.938 240.298 26.794 236.952 28.614L236.196 27.676C239.08 26.29 241.068 23.728 241.292 21.096H236.742V20.046H242.636Z" fill="black"/>
<path d="M29.799 15.0001C24.3878 15.0001 20 18.3708 20 22.5314C20 25.2038 21.8173 27.5503 24.5466 28.8895L23.6232 32.2429C23.5879 32.3459 23.6172 32.4549 23.6939 32.5291C23.7467 32.5809 23.8172 32.6094 23.8937 32.6094C23.9527 32.6094 24.0113 32.5865 24.0643 32.5465L28.0345 29.9367C28.6111 30.0168 29.1993 30.0625 29.799 30.0625C35.2103 30.0625 39.5985 26.6919 39.5985 22.5314C39.5985 18.3708 35.2103 15.0001 29.799 15.0001Z" fill="#3C1E1E"/>
</svg>
