<svg width="20" height="20" viewBox="0 0 20 20" fill="none" xmlns="http://www.w3.org/2000/svg">
<path fill-rule="evenodd" clip-rule="evenodd" d="M11.5126 9.99994L16.2218 5.29077C16.3147 5.19791 16.3884 5.08767 16.4387 4.96632C16.489 4.84498 16.5149 4.71492 16.515 4.58356C16.515 4.45221 16.4892 4.32213 16.4389 4.20076C16.3887 4.07939 16.3151 3.9691 16.2222 3.87619C16.1294 3.78328 16.0191 3.70956 15.8978 3.65926C15.7764 3.60896 15.6464 3.58305 15.515 3.58301C15.3837 3.58297 15.2536 3.6088 15.1322 3.65904C15.0108 3.70927 14.9005 3.78291 14.8076 3.87577L10.0985 8.58577L5.38846 3.87577C5.19876 3.69858 4.94763 3.60203 4.68809 3.6065C4.42855 3.61096 4.1809 3.71609 3.9974 3.89969C3.8139 4.0833 3.70892 4.33102 3.70461 4.59056C3.7003 4.8501 3.797 5.10117 3.97429 5.29077L8.68429 9.99994L3.97429 14.7091C3.83509 14.8493 3.74044 15.0275 3.70225 15.2213C3.66406 15.4151 3.68402 15.6159 3.75964 15.7984C3.83526 15.9809 3.96315 16.1369 4.12723 16.2469C4.29131 16.3569 4.48425 16.416 4.68179 16.4166C4.93763 16.4166 5.19346 16.3191 5.38846 16.1241L10.0985 11.4141L14.8076 16.1241C14.9004 16.2172 15.0106 16.291 15.1319 16.3414C15.2532 16.3917 15.3833 16.4177 15.5147 16.4177C15.6461 16.4177 15.7762 16.3917 15.8975 16.3414C16.0188 16.291 16.129 16.2172 16.2218 16.1241C16.3148 16.0312 16.3885 15.9209 16.4389 15.7995C16.4892 15.6781 16.5151 15.548 16.5151 15.4166C16.5151 15.2852 16.4892 15.1551 16.4389 15.0337C16.3885 14.9123 16.3148 14.802 16.2218 14.7091L11.5126 9.99994Z" fill="#FBFCFF"/>
</svg>
