<svg width="61" height="60" viewBox="0 0 61 60" fill="none" xmlns="http://www.w3.org/2000/svg">
<circle cx="31.1666" cy="30.6666" r="21.3333" fill="#FFF0B0"/>
<path d="M22.5556 25.9369C22.413 26.02 22.4762 26.5313 22.613 26.616C22.7073 26.6743 23.0168 26.692 23.1091 26.616C23.2097 26.5331 22.8468 26.0041 22.8219 25.9423C22.7618 25.7933 22.7714 25.7091 22.6287 25.6165C22.5289 25.5517 22.5092 25.4115 22.4146 25.3564C22.2021 25.2326 21.8806 25.637 21.8532 25.8383C21.8335 25.9831 21.8119 26.2351 21.8767 26.3613C22.0518 26.7023 22.3547 26.6269 22.6809 26.6269C22.9378 26.6269 23.1666 26.222 23.1666 25.9615C23.1666 25.7353 22.9958 25.7024 22.8376 25.5918" stroke="black" stroke-width="2.77483" stroke-linecap="round"/>
<path d="M38.5556 25.9369C38.413 26.02 38.4762 26.5313 38.613 26.616C38.7073 26.6743 39.0168 26.692 39.1091 26.616C39.2097 26.5331 38.8468 26.0041 38.8219 25.9423C38.7618 25.7933 38.7714 25.7091 38.6287 25.6165C38.5289 25.5517 38.5092 25.4115 38.4146 25.3564C38.2021 25.2326 37.8806 25.637 37.8532 25.8383C37.8335 25.9831 37.8119 26.2351 37.8767 26.3613C38.0518 26.7023 38.3547 26.6269 38.6809 26.6269C38.9378 26.6269 39.1666 26.222 39.1666 25.9615C39.1666 25.7353 38.9958 25.7024 38.8376 25.5918" stroke="black" stroke-width="2.77483" stroke-linecap="round"/>
<path d="M29.8333 29.6161C30.0152 29.6074 30.1844 29.5458 30.359 29.5045C30.5903 29.4498 30.8292 29.4564 31.0599 29.4106C31.3597 29.3512 31.701 29.3421 32.0085 29.3421C32.0967 29.3421 32.5322 29.3004 32.498 29.3979C32.4052 29.6625 32.1777 29.8217 32.014 30.0373C31.8458 30.2589 31.4453 30.6666 31.1601 30.6666C30.683 30.6666 30.3714 30.1241 30.1337 29.7988" stroke="#020202" stroke-width="3.0008" stroke-linecap="round"/>
<path d="M26.5 37.3333C27.5319 37.424 28.4244 37.6168 29.4559 37.6725C30.4047 37.7238 31.0487 37.6725 32 37.6725C32.7187 37.6725 33.4903 37.6725 34.209 37.6725C34.6871 37.6725 35.3837 37.5019 35.8333 37.3333" stroke="#FF96BB" stroke-width="4" stroke-linecap="round"/>
</svg>
