<svg width="61" height="60" viewBox="0 0 61 60" fill="none" xmlns="http://www.w3.org/2000/svg">
<circle cx="31.1666" cy="30.6666" r="21.3333" fill="#FFCFCF"/>
<path d="M25.8333 39.9999C27.1072 39.2552 28.3824 38.5423 29.6069 37.717C29.7849 37.597 29.9703 37.4911 30.1666 37.4038C30.3007 37.3441 30.3781 37.3145 30.5328 37.3461C31.1946 37.481 31.9002 37.9841 32.4505 38.3516C33.2962 38.9161 34.2097 39.458 35.1666 39.7774" stroke="#FF96BB" stroke-width="2.66667" stroke-linecap="round"/>
<path d="M29.8333 29.6161C30.0152 29.6074 30.1844 29.5458 30.359 29.5045C30.5903 29.4498 30.8292 29.4564 31.0599 29.4106C31.3597 29.3512 31.701 29.3421 32.0085 29.3421C32.0967 29.3421 32.5322 29.3004 32.498 29.3979C32.4052 29.6625 32.1777 29.8217 32.014 30.0373C31.8458 30.2589 31.4453 30.6666 31.1601 30.6666C30.683 30.6666 30.3714 30.1241 30.1337 29.7988" stroke="#020202" stroke-width="3.0008" stroke-linecap="round"/>
<path d="M24.4039 26.7188C24.3236 26.7288 24.1145 26.9128 24.0446 26.9754C23.8038 27.1908 23.429 27.368 23.1463 27.54C22.8607 27.7139 22.5688 27.8728 22.2879 28.0533C22.0611 28.1992 21.7698 28.244 21.5551 28.3927C20.983 28.7888 20.2491 29.0108 19.5903 29.2225C19.2557 29.33 18.9024 29.3879 18.5522 29.3879" stroke="black" stroke-width="2.5" stroke-linecap="round"/>
<path d="M37.4999 26.7188C37.5802 26.7288 37.7893 26.9128 37.8592 26.9754C38.1 27.1908 38.4748 27.368 38.7575 27.54C39.0431 27.7139 39.335 27.8728 39.6159 28.0533C39.8427 28.1992 40.134 28.244 40.3487 28.3927C40.9208 28.7888 41.6547 29.0108 42.3136 29.2225C42.6481 29.33 43.0014 29.3879 43.3516 29.3879" stroke="black" stroke-width="2.5" stroke-linecap="round"/>
</svg>
