<svg width="61" height="60" viewBox="0 0 61 60" fill="none" xmlns="http://www.w3.org/2000/svg">
<circle cx="31.1666" cy="30.6666" r="21.3333" fill="#D2F0FF"/>
<path d="M27.9357 36.5082C27.2473 36.412 26.529 36.3631 25.8333 36.3631C25.8333 36.8964 25.9465 38.3071 26.1747 38.8052C26.3091 39.0987 26.3968 39.383 26.5731 39.6571C26.9415 40.2304 27.4605 40.67 27.8535 41.219C28.5495 42.1914 29.8997 42.8717 31.0941 42.6104C31.4486 42.5329 31.7902 42.5456 32.1247 42.3833C32.4004 42.2495 32.6687 42.0859 32.9303 41.9263L32.9467 41.9163C33.5595 41.5426 34.2833 41.1503 34.7931 40.6416C35.8705 39.5663 36.197 38.0432 36.358 36.5966C36.3716 36.475 36.6075 36.1837 36.4402 36.0539C36.3033 35.9476 35.8012 36.028 35.672 36.0476C34.6444 36.2032 33.6167 36.4199 32.5737 36.4199H30.1329C29.8023 36.4199 29.4873 36.5238 29.1592 36.5619C28.7406 36.6104 28.3504 36.5662 27.9357 36.5082Z" fill="#FF96BB"/>
<path d="M25.8333 36.3631V34.8627C25.0046 34.8627 24.3329 35.5344 24.3329 36.3631H25.8333ZM27.9357 36.5082L28.1433 35.0223H28.1433L27.9357 36.5082ZM29.1592 36.5619L29.3321 38.0523H29.3321L29.1592 36.5619ZM35.672 36.0476L35.8967 37.531L35.8967 37.531L35.672 36.0476ZM36.4402 36.0539L35.5202 37.2391L35.5202 37.2391L36.4402 36.0539ZM36.358 36.5966L37.8492 36.7626L37.8492 36.7626L36.358 36.5966ZM34.7931 40.6416L33.7332 39.5796L33.7332 39.5796L34.7931 40.6416ZM32.9467 41.9163L32.1655 40.6353L32.1654 40.6353L32.9467 41.9163ZM32.9303 41.9263L32.1491 40.6453L32.149 40.6453L32.9303 41.9263ZM32.1247 42.3833L32.7796 43.7332L32.7796 43.7332L32.1247 42.3833ZM31.0941 42.6104L30.7734 41.1447L30.7734 41.1447L31.0941 42.6104ZM27.8535 41.219L29.0736 40.3457L27.8535 41.219ZM26.5731 39.6571L27.8352 38.8458L26.5731 39.6571ZM26.1747 38.8052L24.8106 39.4301L24.8106 39.4301L26.1747 38.8052ZM25.8333 36.3631V37.8635C26.4609 37.8635 27.1098 37.9078 27.7281 37.9942L27.9357 36.5082L28.1433 35.0223C27.3847 34.9163 26.597 34.8627 25.8333 34.8627V36.3631ZM27.9357 36.5082L27.7281 37.9942C28.1524 38.0535 28.7077 38.1247 29.3321 38.0523L29.1592 36.5619L28.9862 35.0715C28.7734 35.0962 28.5483 35.0788 28.1433 35.0223L27.9357 36.5082ZM29.1592 36.5619L29.3321 38.0523C29.5684 38.0249 29.822 37.9703 29.9263 37.9504C30.0696 37.9231 30.1159 37.9203 30.1329 37.9203V36.4199V34.9195C29.8193 34.9195 29.5428 34.9687 29.3639 35.0028C29.146 35.0444 29.0782 35.0608 28.9862 35.0715L29.1592 36.5619ZM30.1329 36.4199V37.9203H32.5737V36.4199V34.9195H30.1329V36.4199ZM32.5737 36.4199V37.9203C33.7664 37.9203 34.9852 37.6691 35.8967 37.531L35.672 36.0476L35.4472 34.5641C34.3036 34.7373 33.4671 34.9195 32.5737 34.9195V36.4199ZM35.672 36.0476L35.8967 37.531C35.9729 37.5195 36.0623 37.5059 36.1406 37.5014C36.182 37.499 36.1714 37.5024 36.1255 37.4977C36.1013 37.4951 36.0376 37.4874 35.9513 37.4622C35.874 37.4395 35.7036 37.3815 35.5202 37.2391L36.4402 36.0539L37.3602 34.8686C36.9728 34.5679 36.5487 34.5247 36.4357 34.5129C36.2531 34.494 36.0832 34.4988 35.9658 34.5057C35.7265 34.5196 35.5003 34.5561 35.4472 34.5641L35.672 36.0476ZM36.4402 36.0539L35.5202 37.2391C35.3585 37.1136 35.2182 36.9442 35.1232 36.7388C35.0313 36.5399 35.0034 36.354 34.9999 36.214C34.9937 35.9666 35.0628 35.7995 35.0651 35.7935C35.0691 35.7829 35.0812 35.7557 35.0375 35.8505C35.0238 35.8804 34.9947 35.9439 34.9668 36.0184C34.9434 36.0812 34.8887 36.2339 34.8668 36.4306L36.358 36.5966L37.8492 36.7626C37.8307 36.9289 37.7864 37.0459 37.7778 37.0689C37.7648 37.1037 37.755 37.1235 37.7627 37.1069C37.7657 37.1004 37.7688 37.0938 37.7756 37.0792C37.7815 37.0666 37.79 37.0485 37.799 37.0288C37.8165 36.9903 37.8426 36.9317 37.8688 36.8631C37.9108 36.7529 38.0084 36.4811 37.9998 36.1387C37.9893 35.7216 37.8169 35.2231 37.3602 34.8686L36.4402 36.0539ZM36.358 36.5966L34.8668 36.4306C34.7103 37.8369 34.4191 38.895 33.7332 39.5796L34.7931 40.6416L35.8529 41.7036C37.3219 40.2376 37.6837 38.2495 37.8492 36.7626L36.358 36.5966ZM34.7931 40.6416L33.7332 39.5796C33.3872 39.9249 32.8921 40.1921 32.1655 40.6353L32.9467 41.9163L33.728 43.1972C34.2269 42.893 35.1794 42.3757 35.8529 41.7036L34.7931 40.6416ZM32.9467 41.9163L32.1654 40.6353L32.1491 40.6453L32.9303 41.9263L33.7116 43.2072L33.728 43.1972L32.9467 41.9163ZM32.9303 41.9263L32.149 40.6453C31.8763 40.8117 31.6695 40.9364 31.4698 41.0333L32.1247 42.3833L32.7796 43.7332C33.1312 43.5626 33.4611 43.36 33.7116 43.2072L32.9303 41.9263ZM32.1247 42.3833L31.4698 41.0333C31.4988 41.0193 31.4995 41.0283 31.3852 41.0462C31.3124 41.0576 31.2694 41.0623 31.1486 41.0793C31.0486 41.0933 30.9171 41.1132 30.7734 41.1447L31.0941 42.6104L31.4147 44.0762C31.5406 44.0486 31.5493 44.0578 31.8486 44.011C32.0773 43.9753 32.4161 43.9095 32.7796 43.7332L32.1247 42.3833ZM31.0941 42.6104L30.7734 41.1447C30.292 41.25 29.5031 40.9458 29.0736 40.3457L27.8535 41.219L26.6334 42.0922C27.5958 43.437 29.5074 44.4934 31.4147 44.0762L31.0941 42.6104ZM27.8535 41.219L29.0736 40.3457C28.8172 39.9875 28.5222 39.6691 28.3198 39.444C28.0944 39.1932 27.947 39.0198 27.8352 38.8458L26.5731 39.6571L25.3109 40.4684C25.5676 40.8677 25.864 41.2007 26.0884 41.4503C26.3358 41.7256 26.4968 41.9014 26.6334 42.0922L27.8535 41.219ZM26.5731 39.6571L27.8352 38.8458C27.8128 38.811 27.7849 38.7587 27.7377 38.6483C27.7099 38.5835 27.6119 38.34 27.5388 38.1804L26.1747 38.8052L24.8106 39.4301C24.8719 39.5639 24.8849 39.6093 24.9787 39.8285C25.053 40.0021 25.1571 40.2291 25.3109 40.4684L26.5731 39.6571ZM26.1747 38.8052L27.5388 38.1804C27.5554 38.2166 27.5324 38.1719 27.4956 37.9903C27.4637 37.833 27.4339 37.6367 27.4085 37.4215C27.3567 36.9832 27.3337 36.5576 27.3337 36.3631H25.8333H24.3329C24.3329 36.7019 24.3664 37.2483 24.4283 37.7732C24.482 38.228 24.5839 38.9352 24.8106 39.4301L26.1747 38.8052Z" fill="#FF96BB"/>
<path d="M29.8333 29.6161C30.0152 29.6074 30.1844 29.5458 30.359 29.5045C30.5903 29.4498 30.8292 29.4564 31.0599 29.4106C31.3597 29.3512 31.701 29.3421 32.0085 29.3421C32.0967 29.3421 32.5322 29.3004 32.498 29.3979C32.4052 29.6625 32.1777 29.8217 32.014 30.0373C31.8458 30.2589 31.4453 30.6666 31.1601 30.6666C30.683 30.6666 30.3714 30.1241 30.1337 29.7988" stroke="#020202" stroke-width="3.0008" stroke-linecap="round"/>
<path d="M19.4126 26.5771C19.5609 26.3016 19.7816 26.1023 20.0117 25.8943C20.2409 25.6872 20.456 25.4678 20.7559 25.3678C21.4208 25.1462 22.1823 25.1722 22.8732 25.2208C23.3314 25.2531 23.6973 25.3965 24.1086 25.5855C24.2564 25.6534 24.389 25.7533 24.5328 25.8292C24.6762 25.905 24.7862 26.0576 24.9383 26.1083" stroke="black" stroke-width="2.5" stroke-linecap="round"/>
<path d="M37 26.5771C37.1483 26.3016 37.369 26.1023 37.5991 25.8943C37.8283 25.6872 38.0434 25.4678 38.3433 25.3678C39.0082 25.1462 39.7697 25.1722 40.4606 25.2208C40.9188 25.2531 41.2847 25.3965 41.696 25.5855C41.8438 25.6534 41.9764 25.7533 42.1202 25.8292C42.2636 25.905 42.3736 26.0576 42.5257 26.1083" stroke="black" stroke-width="2.5" stroke-linecap="round"/>
</svg>
