<svg width="21" height="21" viewBox="0 0 21 21" fill="none" xmlns="http://www.w3.org/2000/svg">
<g id="Frame 1000001542">
<rect width="21" height="21" fill="white"/>
<g id="Vector">
<path fill-rule="evenodd" clip-rule="evenodd" d="M15.4412 14.1173C15.4412 14.8482 14.8486 15.4408 14.1177 15.4408H4.41179C3.68082 15.4408 3.08826 14.8482 3.08826 14.1173V4.41142C3.08826 3.68045 3.68082 3.08789 4.41179 3.08789H14.1177C14.8486 3.08789 15.4412 3.68045 15.4412 4.41142V14.1173ZM6.39708 4.8526C5.54429 4.8526 4.85296 5.54392 4.85296 6.39671C4.85296 7.24951 5.54429 7.94083 6.39708 7.94083C7.24987 7.94083 7.9412 7.24951 7.9412 6.39671C7.9412 5.54392 7.24987 4.8526 6.39708 4.8526ZM10.5009 8.91055L5.29414 14.1173H14.1177V10.5879L11.6377 8.81646C11.2867 8.56576 10.8059 8.60555 10.5009 8.91055Z" fill="#282A3A"/>
<path fill-rule="evenodd" clip-rule="evenodd" d="M18.2647 6.16439C18.2647 5.65271 17.8499 5.23792 17.3383 5.23792C16.8266 5.23792 16.4118 5.65271 16.4118 6.16439V15.4291C16.4118 15.9408 15.997 16.3556 15.4853 16.3556H6.22061C5.70894 16.3556 5.29414 16.7704 5.29414 17.282C5.29414 17.7937 5.70894 18.2085 6.22061 18.2085H15.4853C17.0203 18.2085 18.2647 16.9641 18.2647 15.4291V6.16439Z" fill="#282A3A"/>
</g>
</g>
</svg>
