<svg width="143" height="143" viewBox="0 0 143 143" fill="none" xmlns="http://www.w3.org/2000/svg">
<g style="mix-blend-mode:luminosity" opacity="0.7">
<path d="M105.074 39.5872C104.197 38.6811 103.06 38.1885 102.195 37.3051C102.195 36.4739 101.808 35.3772 101.778 34.5605L101.777 34.5363C101.739 33.5118 101.706 32.6385 101.449 31.6373C101.207 30.6967 100.646 29.483 100.646 28.5233C100.646 27.6648 99.9417 26.7512 99.7442 25.8821C99.3758 24.261 98.8431 22.702 98.6122 21.0398C98.3454 19.1188 97.5262 17.3049 97.2077 15.359C97.1205 14.8255 95.098 8.52702 94.1473 9.0703C93.909 9.20642 93.787 9.69866 93.4765 9.89831C93.1684 10.0963 92.8648 10.4586 92.638 10.7473C92.1953 11.3107 91.5543 11.4511 91.1182 11.9841C90.5305 12.7023 89.8479 13.0552 89.2106 13.6925C88.6139 14.2892 87.9021 15.2812 87.2402 15.7363C86.4152 16.3035 85.7078 16.7485 84.9763 17.4343C84.5697 17.8154 83.9328 18.0743 83.5927 18.4929C83.211 18.9627 83.0957 19.21 82.5446 19.52C82.124 19.7566 81.8533 20.3161 81.507 20.6625C81.0376 21.1318 80.5543 21.5732 80.0816 22.046L79.9861 22.1414C77.8187 24.3091 74.5541 27.5742 71.8396 29.0068L67.8177 28.4049C66.5384 28.2135 65.3631 28.1801 64.0785 28.3222C62.5553 28.4908 61.054 28.2047 59.647 28.899C56.8948 27.4465 54.2784 25.4063 52.1133 23.2412C51.6406 22.7685 51.1572 22.3271 50.6879 21.8577C50.3416 21.5114 50.0709 20.9519 49.6502 20.7153C49.0991 20.4053 48.9839 20.158 48.6021 19.6881C48.2621 19.2696 47.6252 19.0107 47.2186 18.6295C46.4871 17.9437 45.7797 17.4988 44.9547 16.9316C44.2928 16.4765 43.5809 15.4844 42.9842 14.8877C42.347 14.2505 41.6644 13.8976 41.0767 13.1793C40.6406 12.6463 39.9996 12.506 39.5569 11.9425C39.3301 11.6539 39.0264 11.2916 38.7184 11.0936C38.4078 10.8939 38.2858 10.4017 38.0476 10.2656C37.0969 9.72228 35.0744 16.0208 34.9871 16.5542C34.6687 18.5001 33.8494 20.3141 33.5826 22.235C33.3518 23.8973 32.8191 25.4562 32.4507 27.0773C32.2532 27.9464 31.5493 28.8601 31.5493 29.7186C31.5493 30.6782 30.9946 31.7546 30.7527 32.6952C30.4933 33.7042 30.4569 34.6869 30.4186 35.7218V35.7219C30.3883 36.5386 30.04 36.9996 30.04 37.8308V38.2593C29.4548 38.6678 28.852 39.0566 28.3383 39.5872C27.2265 40.7356 25.9718 41.6598 25.0124 42.984C24.6216 43.5235 24.0542 43.981 23.6162 44.4878C23.2025 44.9664 22.8541 45.3654 22.4526 45.8654C21.4247 47.1454 20.8741 48.7901 20.2224 50.2823C19.6594 51.5713 19.3497 53.3136 19.3497 54.7307C19.3497 55.6329 19.0007 56.3959 19.0007 57.2862V59.2633C19.0007 63.175 20.6924 67.0852 22.7338 70.2108C23.8363 71.8989 26.39 72.5779 28.0765 73.1658C30.695 74.0787 33.3701 74.7868 36.0081 75.6477C38.3023 76.3964 40.7419 76.8147 43.0865 77.425C45.3143 78.0048 47.8653 77.8326 50.1552 77.9928C50.9929 78.0515 51.8467 78.0034 52.6859 78.0034C53.5094 78.0034 54.1735 78.3406 54.9549 78.382C56.2591 78.451 57.57 78.5712 58.8722 78.5712H63.158H66.7064H70.2547H74.5406C75.8428 78.5712 77.1537 78.451 78.4579 78.382C79.2392 78.3406 79.9034 78.0034 80.7268 78.0034C81.5661 78.0034 82.4199 78.0515 83.2576 77.9928C85.5475 77.8326 88.0985 78.0048 90.3263 77.425C92.6709 76.8147 95.1105 76.3964 97.4046 75.6477C100.043 74.7868 102.718 74.0787 105.336 73.1658C107.023 72.5779 109.576 71.8989 110.679 70.2108C112.72 67.0852 114.412 63.175 114.412 59.2633V57.2862C114.412 56.3959 114.063 55.6329 114.063 54.7307C114.063 53.3136 113.753 51.5713 113.19 50.2823C112.539 48.7901 111.988 47.1454 110.96 45.8654C110.559 45.3654 110.21 44.9664 109.797 44.4878C109.359 43.981 108.791 43.5235 108.4 42.984C107.441 41.6598 106.186 40.7356 105.074 39.5872Z" fill="black"/>
<path d="M31.2181 37.3051C30.8595 37.6712 30.4542 37.9702 30.04 38.2593M30.04 38.2593C29.4548 38.6678 28.852 39.0566 28.3383 39.5872C27.2265 40.7356 25.9718 41.6598 25.0124 42.984C24.6216 43.5235 24.0542 43.981 23.6162 44.4878C23.2025 44.9664 22.8541 45.3654 22.4526 45.8654C21.4247 47.1454 20.8741 48.7901 20.2224 50.2823C19.6594 51.5713 19.3497 53.3136 19.3497 54.7307C19.3497 55.6329 19.0007 56.3959 19.0007 57.2862V59.2633C19.0007 63.175 20.6924 67.0852 22.7338 70.2108C23.8363 71.8989 26.39 72.5779 28.0765 73.1658C30.695 74.0787 33.3701 74.7868 36.0081 75.6477C38.3023 76.3964 40.7419 76.8147 43.0865 77.425C45.3143 78.0048 47.8653 77.8326 50.1552 77.9928C50.9929 78.0515 51.8467 78.0034 52.6859 78.0034C53.5094 78.0034 54.1735 78.3406 54.9549 78.382C56.2591 78.451 57.57 78.5712 58.8722 78.5712H63.158H66.7064H70.2547C71.6834 78.5712 73.1119 78.5712 74.5405 78.5712C75.8428 78.5712 77.1537 78.4509 78.4579 78.382C79.2392 78.3406 79.9034 78.0034 80.7268 78.0034C81.5661 78.0034 82.4199 78.0515 83.2576 77.9928C85.5475 77.8326 88.0985 78.0048 90.3263 77.425C92.6709 76.8147 95.1105 76.3964 97.4046 75.6477C100.043 74.7868 102.718 74.0787 105.336 73.1658C107.023 72.5779 109.576 71.8989 110.679 70.2108C112.72 67.0852 114.412 63.175 114.412 59.2633C114.412 58.6042 114.412 57.9452 114.412 57.2862C114.412 56.3959 114.063 55.6329 114.063 54.7307C114.063 53.3136 113.753 51.5713 113.19 50.2823C112.539 48.7901 111.988 47.1454 110.96 45.8654C110.559 45.3654 110.21 44.9664 109.797 44.4878C109.359 43.981 108.791 43.5235 108.4 42.984C107.441 41.6598 106.186 40.7356 105.074 39.5872C104.197 38.6811 103.06 38.1885 102.195 37.3051C102.195 36.4739 101.808 35.3772 101.778 34.5605C101.739 33.5254 101.708 32.6464 101.449 31.6373C101.207 30.6967 100.646 29.483 100.646 28.5233C100.646 27.6648 99.9417 26.7512 99.7442 25.8821C99.3758 24.261 98.8431 22.702 98.6122 21.0398C98.3454 19.1188 97.5262 17.3049 97.2077 15.359C97.1205 14.8255 95.098 8.52702 94.1473 9.0703C93.909 9.20642 93.787 9.69866 93.4765 9.89831C93.1684 10.0963 92.8648 10.4586 92.638 10.7473C92.1953 11.3107 91.5543 11.4511 91.1182 11.9841C90.5305 12.7023 89.8479 13.0552 89.2106 13.6925C88.6139 14.2892 87.9021 15.2812 87.2402 15.7363C86.4152 16.3035 85.7078 16.7485 84.9763 17.4343C84.5697 17.8154 83.9328 18.0743 83.5927 18.4929C83.211 18.9627 83.0957 19.21 82.5446 19.52C82.124 19.7566 81.8533 20.3161 81.507 20.6625C81.0376 21.1318 80.5543 21.5732 80.0816 22.046L79.9861 22.1414C77.8187 24.3091 74.5541 27.5742 71.8396 29.0068L67.8177 28.4049C66.5384 28.2135 65.3631 28.1801 64.0785 28.3222C62.5553 28.4908 61.054 28.2047 59.647 28.899C56.8948 27.4465 54.2784 25.4063 52.1133 23.2412C51.6406 22.7685 51.1572 22.3271 50.6879 21.8577C50.3416 21.5114 50.0709 20.9519 49.6502 20.7153C49.0991 20.4053 48.9839 20.158 48.6021 19.6881C48.2621 19.2696 47.6252 19.0107 47.2186 18.6295C46.4871 17.9437 45.7797 17.4988 44.9547 16.9316C44.2928 16.4765 43.5809 15.4844 42.9842 14.8877C42.347 14.2505 41.6644 13.8976 41.0767 13.1793C40.6406 12.6463 39.9996 12.506 39.5569 11.9425C39.3301 11.6539 39.0264 11.2916 38.7184 11.0936C38.4078 10.8939 38.2858 10.4017 38.0476 10.2656C37.0969 9.72228 35.0744 16.0208 34.9871 16.5542C34.6687 18.5001 33.8494 20.3141 33.5826 22.235C33.3518 23.8973 32.8191 25.4562 32.4507 27.0773C32.2532 27.9464 31.5493 28.8601 31.5493 29.7186C31.5493 30.6782 30.9946 31.7546 30.7527 32.6952C30.4933 33.7042 30.4569 34.687 30.4186 35.7219C30.3883 36.5386 30.04 36.9996 30.04 37.8308V38.2593Z" stroke="#020202" stroke-width="1.99759" stroke-linecap="round"/>
<path d="M69.0215 64.1296C69.6032 63.79 70.1855 63.4649 70.7446 63.0885C70.8259 63.0338 70.9106 62.9856 71.0002 62.9457C71.0614 62.9185 71.0968 62.905 71.1674 62.9194C71.4696 62.981 71.7918 63.2104 72.0431 63.3779C72.4292 63.6353 72.8464 63.8825 73.2833 64.0281" stroke="#FF4E57" stroke-width="1.83989" stroke-linecap="round"/>
<path d="M85.4952 24.0751C84.5245 25.0085 83.6181 26.0198 82.9805 27.2139C83.1066 27.34 84.1382 27.4449 84.3217 27.4653C84.5526 27.491 84.7777 27.8424 84.9923 27.9497C85.7944 28.3507 86.4984 28.9663 87.4046 29.1605C88.1201 29.3138 88.8996 29.6357 89.6213 29.6448C90.2721 29.653 91.3401 29.8311 91.9498 29.5423C92.6059 29.2316 92.2013 27.9508 92.2013 27.4188C92.2013 26.0532 91.9068 24.7518 91.6564 23.3998C91.5097 22.6075 91.2774 21.6775 90.8228 21.0108C90.491 20.5242 90.3767 20.5078 89.8169 20.5078C88.9729 20.5078 87.9641 21.445 87.507 22.1052C86.9823 22.8631 86.153 23.4426 85.4952 24.0751Z" fill="white"/>
<path d="M82.9805 27.2139L82.0994 26.7434C81.8923 27.1313 81.9632 27.6091 82.2742 27.9201L82.9805 27.2139ZM85.4952 24.0751L84.803 23.3551L84.803 23.3551L85.4952 24.0751ZM87.507 22.1052L88.3282 22.6737L87.507 22.1052ZM90.8228 21.0108L91.648 20.4481V20.4481L90.8228 21.0108ZM91.6564 23.3998L90.6743 23.5817V23.5817L91.6564 23.3998ZM91.9498 29.5423L92.3774 30.445L91.9498 29.5423ZM89.6213 29.6448L89.6087 30.6435H89.6087L89.6213 29.6448ZM87.4046 29.1605L87.1953 30.1371H87.1953L87.4046 29.1605ZM84.9923 27.9497L84.5456 28.843L84.5456 28.843L84.9923 27.9497ZM84.3217 27.4653L84.2114 28.458L84.2114 28.458L84.3217 27.4653ZM83.8615 27.6843C84.4267 26.6259 85.2466 25.6998 86.1875 24.795L84.803 23.3551C83.8024 24.3172 82.8094 25.4137 82.0994 26.7434L83.8615 27.6843ZM86.1875 24.795C86.5068 24.488 86.8075 24.249 87.2181 23.8805C87.59 23.5468 87.9983 23.1503 88.3282 22.6737L86.6858 21.5366C86.4911 21.8179 86.2224 22.0901 85.884 22.3937C85.5844 22.6626 85.1415 23.0296 84.803 23.3551L86.1875 24.795ZM88.3282 22.6737C88.4982 22.4281 88.7925 22.1052 89.1231 21.8527C89.4818 21.5788 89.7265 21.5066 89.8169 21.5066V19.509C89.0633 19.509 88.3816 19.9054 87.9106 20.2651C87.4115 20.6463 86.9729 21.122 86.6858 21.5366L88.3282 22.6737ZM89.8169 21.5066C89.8861 21.5066 89.9387 21.5069 89.9829 21.508C90.027 21.509 90.0528 21.5107 90.0676 21.5121C90.0954 21.5148 90.0521 21.5139 89.9853 21.483C89.9528 21.4679 89.9254 21.4507 89.9045 21.4349C89.8849 21.4201 89.876 21.4103 89.8785 21.4129C89.8815 21.4161 89.8928 21.4285 89.914 21.4563C89.9353 21.4841 89.9623 21.5216 89.9976 21.5734L91.648 20.4481C91.4835 20.2068 91.2395 19.8626 90.8255 19.6707C90.4456 19.4946 90.0325 19.509 89.8169 19.509V21.5066ZM89.9976 21.5734C90.3244 22.0527 90.5293 22.7985 90.6743 23.5817L92.6385 23.2179C92.4901 22.4165 92.2305 21.3023 91.648 20.4481L89.9976 21.5734ZM90.6743 23.5817C90.9349 24.9891 91.2025 26.1703 91.2025 27.4188H93.2001C93.2001 25.9361 92.8786 24.5144 92.6385 23.2179L90.6743 23.5817ZM91.2025 27.4188C91.2025 27.6375 91.2415 27.8993 91.2649 28.0684C91.2935 28.2745 91.3166 28.4492 91.3238 28.6084C91.3272 28.685 91.3262 28.7452 91.3224 28.7909C91.3185 28.8376 91.3127 28.8557 91.3134 28.8535C91.3192 28.8353 91.3723 28.7107 91.5222 28.6397L92.3774 30.445C92.8554 30.2186 93.1039 29.8173 93.2183 29.4549C93.3245 29.1187 93.331 28.7765 93.3194 28.5186C93.3074 28.2523 93.2704 27.9876 93.2436 27.7942C93.2117 27.5638 93.2001 27.4661 93.2001 27.4188H91.2025ZM91.5222 28.6397C91.4473 28.6752 91.2375 28.7156 90.8232 28.7064C90.6362 28.7022 90.444 28.6898 90.2401 28.6763C90.0476 28.6635 89.8292 28.6485 89.634 28.6461L89.6087 30.6435C89.7389 30.6452 89.898 30.6556 90.1078 30.6695C90.3063 30.6826 90.5411 30.6982 90.7787 30.7035C91.2136 30.7132 91.8426 30.6983 92.3774 30.445L91.5222 28.6397ZM89.634 28.6461C89.4039 28.6432 89.1285 28.5886 88.7701 28.4922C88.459 28.4085 88.0025 28.2671 87.6139 28.1838L87.1953 30.1371C87.5222 30.2071 87.8133 30.3034 88.2511 30.4212C88.6417 30.5263 89.117 30.6373 89.6087 30.6435L89.634 28.6461ZM87.6139 28.1838C87.3174 28.1203 87.0242 27.9818 86.6644 27.7709C86.3528 27.5883 85.8753 27.2745 85.439 27.0563L84.5456 28.843C84.9114 29.0259 85.1869 29.2203 85.6544 29.4943C86.0737 29.7401 86.5856 30.0064 87.1953 30.1371L87.6139 28.1838ZM85.439 27.0563C85.5033 27.0885 85.5267 27.1155 85.4903 27.0834C85.4471 27.0453 85.4314 27.0277 85.3445 26.9466C85.2815 26.8879 85.177 26.7925 85.0505 26.7075C84.9275 26.6249 84.7144 26.504 84.432 26.4726L84.2114 28.458C84.0445 28.4395 83.9461 28.3721 83.9369 28.3659C83.9243 28.3575 83.9327 28.3614 83.9817 28.4072C84.0061 28.4299 84.0253 28.4485 84.0596 28.4809C84.0894 28.5092 84.1274 28.5449 84.1686 28.5812C84.2419 28.646 84.374 28.7572 84.5456 28.843L85.439 27.0563ZM84.432 26.4726C84.331 26.4614 84.0507 26.4325 83.7779 26.3915C83.6396 26.3708 83.5253 26.3501 83.4485 26.3318C83.4087 26.3223 83.4002 26.3184 83.4123 26.3229C83.4187 26.3253 83.445 26.3351 83.4822 26.3548C83.5118 26.3705 83.5964 26.4173 83.6867 26.5076L82.2742 27.9201C82.4562 28.1021 82.6692 28.178 82.7213 28.1972C82.8147 28.2316 82.9089 28.2568 82.9864 28.2752C83.1442 28.3127 83.3229 28.3432 83.4812 28.367C83.8016 28.4151 84.1289 28.4488 84.2114 28.458L84.432 26.4726Z" fill="white"/>
<path d="M44.7548 24.0751C45.7255 25.0085 46.6319 26.0198 47.2695 27.2139C47.1434 27.34 46.1118 27.4449 45.9283 27.4653C45.6974 27.491 45.4723 27.8424 45.2577 27.9497C44.4556 28.3507 43.7516 28.9663 42.8454 29.1605C42.1299 29.3138 41.3504 29.6357 40.6287 29.6448C39.9779 29.653 38.9099 29.8311 38.3002 29.5423C37.6441 29.2316 38.0487 27.9508 38.0487 27.4188C38.0487 26.0532 38.3432 24.7518 38.5936 23.3998C38.7403 22.6075 38.9726 21.6775 39.4272 21.0108C39.759 20.5242 39.8733 20.5078 40.4331 20.5078C41.2771 20.5078 42.2859 21.445 42.743 22.1052C43.2677 22.8631 44.097 23.4426 44.7548 24.0751Z" fill="white"/>
<path d="M47.2695 27.2139L48.1506 26.7434C48.3577 27.1313 48.2868 27.6091 47.9758 27.9201L47.2695 27.2139ZM44.7548 24.0751L45.447 23.3551L45.447 23.3551L44.7548 24.0751ZM42.743 22.1052L41.9218 22.6737L42.743 22.1052ZM39.4272 21.0108L38.602 20.4481V20.4481L39.4272 21.0108ZM38.5936 23.3998L39.5757 23.5817V23.5817L38.5936 23.3998ZM38.3002 29.5423L37.8726 30.445L38.3002 29.5423ZM40.6287 29.6448L40.6413 30.6435H40.6413L40.6287 29.6448ZM42.8454 29.1605L43.0547 30.1371H43.0547L42.8454 29.1605ZM45.2577 27.9497L45.7044 28.843L45.7044 28.843L45.2577 27.9497ZM45.9283 27.4653L46.0386 28.458L46.0386 28.458L45.9283 27.4653ZM46.3885 27.6843C45.8233 26.6259 45.0034 25.6998 44.0625 24.795L45.447 23.3551C46.4476 24.3172 47.4406 25.4137 48.1506 26.7434L46.3885 27.6843ZM44.0625 24.795C43.7432 24.488 43.4425 24.249 43.0319 23.8805C42.66 23.5468 42.2517 23.1503 41.9218 22.6737L43.5642 21.5366C43.7589 21.8179 44.0276 22.0901 44.366 22.3937C44.6656 22.6626 45.1085 23.0296 45.447 23.3551L44.0625 24.795ZM41.9218 22.6737C41.7518 22.4281 41.4575 22.1052 41.1269 21.8527C40.7682 21.5788 40.5235 21.5066 40.4331 21.5066V19.509C41.1867 19.509 41.8684 19.9054 42.3394 20.2651C42.8385 20.6463 43.2771 21.122 43.5642 21.5366L41.9218 22.6737ZM40.4331 21.5066C40.3639 21.5066 40.3113 21.5069 40.2671 21.508C40.223 21.509 40.1972 21.5107 40.1824 21.5121C40.1546 21.5148 40.1979 21.5139 40.2647 21.483C40.2972 21.4679 40.3246 21.4507 40.3455 21.4349C40.3651 21.4201 40.374 21.4103 40.3715 21.4129C40.3685 21.4161 40.3572 21.4285 40.336 21.4563C40.3147 21.4841 40.2877 21.5216 40.2524 21.5734L38.602 20.4481C38.7665 20.2068 39.0105 19.8626 39.4245 19.6707C39.8044 19.4946 40.2175 19.509 40.4331 19.509V21.5066ZM40.2524 21.5734C39.9256 22.0527 39.7207 22.7985 39.5757 23.5817L37.6115 23.2179C37.7599 22.4165 38.0195 21.3023 38.602 20.4481L40.2524 21.5734ZM39.5757 23.5817C39.3151 24.9891 39.0475 26.1703 39.0475 27.4188H37.0499C37.0499 25.9361 37.3714 24.5144 37.6115 23.2179L39.5757 23.5817ZM39.0475 27.4188C39.0475 27.6375 39.0085 27.8993 38.9851 28.0684C38.9565 28.2745 38.9334 28.4492 38.9262 28.6084C38.9228 28.685 38.9238 28.7452 38.9276 28.7909C38.9315 28.8376 38.9373 28.8557 38.9366 28.8535C38.9308 28.8353 38.8777 28.7107 38.7278 28.6397L37.8726 30.445C37.3946 30.2186 37.1461 29.8173 37.0317 29.4549C36.9255 29.1187 36.919 28.7765 36.9306 28.5186C36.9426 28.2523 36.9796 27.9876 37.0064 27.7942C37.0383 27.5638 37.0499 27.4661 37.0499 27.4188H39.0475ZM38.7278 28.6397C38.8027 28.6752 39.0125 28.7156 39.4268 28.7064C39.6138 28.7022 39.806 28.6898 40.0099 28.6763C40.2024 28.6635 40.4208 28.6485 40.616 28.6461L40.6413 30.6435C40.5111 30.6452 40.352 30.6556 40.1422 30.6695C39.9437 30.6826 39.7089 30.6982 39.4713 30.7035C39.0364 30.7132 38.4074 30.6983 37.8726 30.445L38.7278 28.6397ZM40.616 28.6461C40.8461 28.6432 41.1215 28.5886 41.4799 28.4922C41.791 28.4085 42.2475 28.2671 42.6361 28.1838L43.0547 30.1371C42.7278 30.2071 42.4367 30.3034 41.9989 30.4212C41.6083 30.5263 41.133 30.6373 40.6413 30.6435L40.616 28.6461ZM42.6361 28.1838C42.9326 28.1203 43.2258 27.9818 43.5856 27.7709C43.8972 27.5883 44.3747 27.2745 44.811 27.0563L45.7044 28.843C45.3386 29.0259 45.0631 29.2203 44.5956 29.4943C44.1763 29.7401 43.6644 30.0064 43.0547 30.1371L42.6361 28.1838ZM44.811 27.0563C44.7467 27.0885 44.7233 27.1155 44.7597 27.0834C44.8029 27.0453 44.8186 27.0277 44.9055 26.9466C44.9685 26.8879 45.073 26.7925 45.1995 26.7075C45.3225 26.6249 45.5356 26.504 45.818 26.4726L46.0386 28.458C46.2055 28.4395 46.3039 28.3721 46.3131 28.3659C46.3257 28.3575 46.3173 28.3614 46.2683 28.4072C46.2439 28.4299 46.2247 28.4485 46.1904 28.4809C46.1606 28.5092 46.1226 28.5449 46.0814 28.5812C46.0081 28.646 45.876 28.7572 45.7044 28.843L44.811 27.0563ZM45.818 26.4726C45.919 26.4614 46.1993 26.4325 46.4721 26.3915C46.6104 26.3708 46.7247 26.3501 46.8015 26.3318C46.8413 26.3223 46.8498 26.3184 46.8377 26.3229C46.8313 26.3253 46.805 26.3351 46.7678 26.3548C46.7382 26.3705 46.6536 26.4173 46.5633 26.5076L47.9758 27.9201C47.7938 28.1021 47.5808 28.178 47.5287 28.1972C47.4353 28.2316 47.3411 28.2568 47.2636 28.2752C47.1058 28.3127 46.9271 28.3432 46.7688 28.367C46.4484 28.4151 46.1211 28.4488 46.0386 28.458L45.818 26.4726Z" fill="white"/>
<path d="M27.4153 131.657C34.324 131.657 46.8312 130.925 53.7166 130.339C53.6696 131.969 53.7755 133.382 56.2302 133.382C59.0968 133.382 61.8676 133.625 64.7364 133.625C66.0547 134.099 67.0578 133.22 68.3521 133.22C70.969 133.22 73.7671 133.347 76.3324 132.842C77.6386 132.585 78.9537 132.43 80.2625 132.195C81.8896 131.902 83.2363 130.817 84.7026 130.199C87.4271 129.05 89.8334 127.448 90.9172 122.668C91.8094 125.077 96.151 124.371 98.0602 124.197C99.3131 124.083 100.328 122.899 101.052 121.995C102.208 120.55 102.735 118.701 103.204 116.953C103.771 114.839 103.647 112.744 103.667 110.57C103.693 107.815 103.798 105.058 103.798 102.297V98.0951C103.798 96.7453 103.642 95.4693 103.552 94.1324C103.388 91.7195 103.323 89.2614 102.487 86.9603C101.488 84.2153 100.748 81.3691 99.1034 78.9841C98.316 77.8423 97.7184 76.3965 96.7562 75.4343L43.1395 78.4283C43.848 79.4635 44.0705 81.2931 44.1369 82.5488C44.1962 83.6715 44.4685 84.733 44.4818 85.8607C44.5062 87.9318 45.0306 90.2421 44.575 92.2952C43.9406 95.1535 43.0497 97.8093 41.3777 100.278C40.7401 101.22 40.4936 102.477 39.6905 103.349C39.0087 104.09 38.7238 105.002 38.022 105.749C37.2938 106.525 36.9193 107.431 35.9992 108.081C35.3357 108.549 32.9739 111.259 32.3055 111.722C31.6313 110.879 31.0361 110.511 30.0988 109.964C29.4724 109.599 28.1286 109.626 27.5088 110.02C26.7903 110.477 26.6318 110.715 26.153 111.46C24.8237 113.528 25.0591 116.412 25.0591 118.772C25.0591 123.236 26.5334 127.317 27.4153 131.657Z" fill="black"/>
<path d="M93.2754 108.213C94.9018 108.252 97.0667 108.421 98.5404 107.568C99.5482 106.985 100.549 106.379 101.515 105.725C102.952 104.753 104.251 103.518 105.398 102.224C106.93 100.495 108.332 98.8566 109.176 96.6696C110.28 93.8058 109.618 90.5846 110.281 87.6466C110.652 86.0062 110.673 84.5635 111.756 83.1648C112.765 81.8605 114.514 80.7297 116.198 80.7297C117.694 80.7297 118.283 82.4087 118.567 83.6387C118.854 84.8818 118.863 86.0716 118.863 87.3373C118.863 87.6396 118.833 87.9583 118.863 88.2587C118.873 88.3602 119.411 87.4656 119.482 87.3373C119.977 86.4464 120.569 85.6067 121.206 84.8101C122.063 83.7397 123.302 82.2997 124.786 82.1513C125.354 82.0946 125.888 82.0127 126.471 82.0328C127.008 82.0513 127.357 82.6605 127.748 82.9542C128.424 83.4612 128.664 84.1644 129.143 84.8496C129.628 85.5424 129.938 86.2347 130.058 87.0741C130.172 87.87 130.117 88.6934 130.117 89.496C130.117 90.5305 129.76 91.2827 129.341 92.1877C128.678 93.618 127.838 95.4066 126.675 96.4721C126.103 96.997 125.443 97.3297 124.793 97.7357C123.699 98.4197 121.83 99.0082 120.588 99.4554C120.035 99.6547 117.197 99.8234 116.777 100.244" stroke="black" stroke-width="6.04535" stroke-linecap="round"/>
<path d="M64.2132 116.6C63.414 114.597 62.3762 111.461 60.388 110.631C59.7365 110.359 58.7526 110.578 58.081 110.578C57.0498 110.578 55.5266 112.075 54.747 112.797C53.926 113.557 53.7318 114.894 53.5563 116.037C53.1326 118.793 53.2288 121.894 53.2288 124.7C53.2288 127.154 52.9755 130.431 53.5563 132.836" stroke="white" stroke-width="1.05137" stroke-linecap="round"/>
<path d="M33.9514 103.328C33.9514 95.1164 36.8869 87.34 39.5444 79.6188C42.202 71.8976 45.6805 72.25 45.6805 72.25L54.3542 79.2153C50.5431 89.5538 41.9481 110.493 38.0581 111.545C34.168 112.596 33.6184 109.423 33.8298 107.705C33.8298 106.225 33.9514 104.795 33.9514 103.328Z" fill="black" stroke="black" stroke-width="1.99759" stroke-linecap="round"/>
<path d="M95.6426 57.5074C96.3132 57.3471 97.0033 57.2743 97.6834 57.1657C99.1108 56.9378 100.521 56.6189 101.936 56.3257C102.102 56.2912 103.707 56.1574 103.844 55.8843" stroke="white" stroke-width="1.99759" stroke-linecap="round"/>
<path d="M96.5801 62.2075C98.0271 62.4059 99.4361 62.6431 100.87 62.9242C101.466 63.0408 102.114 63.2327 102.731 63.2327" stroke="white" stroke-width="1.99759" stroke-linecap="round"/>
<path d="M38.7715 57.5074C38.1009 57.3471 37.4108 57.2743 36.7307 57.1657C35.3033 56.9378 33.8932 56.6189 32.4783 56.3257C32.3121 56.2912 30.7069 56.1574 30.5704 55.8843" stroke="white" stroke-width="1.99759" stroke-linecap="round"/>
<path d="M37.832 62.2075C36.385 62.4059 34.976 62.6431 33.5416 62.9242C32.9463 63.0408 32.298 63.2327 31.6812 63.2327" stroke="white" stroke-width="1.99759" stroke-linecap="round"/>
<path d="M56.5237 54.1429C56.2524 54.5951 56.2691 55.4327 56.782 55.6658C57.1086 55.8143 57.4308 55.9063 57.7883 55.9063C58.534 55.9063 58.6648 55.5026 58.8303 54.8821C59.0677 53.9917 57.4566 53.8854 56.9245 54.0628" stroke="white" stroke-width="1.99759" stroke-linecap="round"/>
<path d="M76.162 54.0632C76.0557 54.4219 75.7727 54.9661 76.0106 55.3367C76.3357 55.8433 76.7996 55.8794 77.3553 55.8176C77.8574 55.7618 78.1658 55.3561 78.1658 54.8914C78.1658 54.217 77.8001 53.8842 77.0882 53.8272C76.6616 53.7931 76.5446 53.6315 76.162 53.8228" stroke="white" stroke-width="1.99759" stroke-linecap="round"/>
<path d="M65.2656 58.6627C65.3882 58.6563 65.5022 58.6108 65.6197 58.5803C65.7756 58.5399 65.9365 58.5448 66.0919 58.511C66.2938 58.4671 66.5237 58.4604 66.7308 58.4604C66.7902 58.4604 67.0836 58.4296 67.0606 58.5016C66.998 58.697 66.8448 58.8145 66.7345 58.9738C66.6213 59.1374 66.3514 59.4384 66.1593 59.4384C65.838 59.4384 65.6281 59.0378 65.468 58.7976" stroke="#FF4E57" stroke-width="1.99759" stroke-linecap="round"/>
<path d="M42.6621 88.1506C41.9156 91.2214 41.4102 94.4321 40.1744 97.3536C38.711 100.813 37.3645 104.318 35.9882 107.814C35.4984 109.058 35.1172 110.441 34.8032 111.747" stroke="white" stroke-width="1.05137" stroke-linecap="round"/>
<path d="M83.1992 84.9529C84.2645 88.9512 85.6864 92.9571 86.1115 97.0947C86.6148 101.994 87.2771 106.871 87.9009 111.758C88.1229 113.497 88.5519 115.325 89.0093 117.024" stroke="white" stroke-width="1.05137" stroke-linecap="round"/>
<g clip-path="url(#clip0_2108_25062)">
<path d="M70.4399 108.288C69.7273 106.02 69.1857 104.283 68.3282 102.122C67.4801 99.988 65.8198 97.7419 64.2734 96.0638C62.6985 94.3549 60.8623 92.8694 59.0072 91.4861C58.3872 91.025 57.4964 90.5329 56.867 90.0861C56.4441 89.7866 56.2636 89.5513 55.8052 89.2922C55.6508 89.2043 54.5771 87.9374 54.589 87.7354C54.6389 86.9368 55.2778 85.4988 55.8432 85.0139C56.3064 84.617 56.6199 83.9372 56.7743 83.3549C57.0475 82.321 56.3396 81.5485 55.4892 81.0898C53.7885 80.1747 51.7789 79.9774 50.0544 79.0885C49.0187 78.5537 47.9735 78.1425 46.7906 78.2732C45.4794 78.4182 44.2252 78.846 42.8926 78.8342C41.4507 78.8223 39.9828 78.6202 38.5742 79.0338C37.0919 79.4688 35.8092 80.227 34.3983 80.8592C33.3602 81.3251 32.8685 82.0524 33.1322 83.0839C33.441 84.2938 34.9113 85.7056 35.4695 86.9011H35.4482C35.2819 87.588 35.8852 88.0658 35.1964 88.2108L34.9802 88.3059C32.4932 88.9215 29.0346 91.1676 27.4075 92.9977C24.4074 96.3705 22.0772 99.1205 20.051 103.259C15.3691 112.818 13.5994 121.496 23.6924 131.094C24.3433 131.712 24.9941 132.346 25.7875 132.762C26.7899 133.288 27.9325 133.468 29.056 133.599C33.6928 134.143 38.2606 134.079 42.9045 133.796C48.2158 133.475 54.7315 134.935 59.8932 133.418C64.5276 132.056 72.9316 124.835 71.8247 113.952C71.6893 112.616 71.4708 111.654 71.0836 110.365C70.8769 109.678 70.6655 108.984 70.4446 108.286L70.4399 108.288Z" fill="#FF6362"/>
<path d="M48.9996 86.8206C49.0328 86.7231 49.0685 86.6281 49.1041 86.533C49.1397 86.4379 49.1777 86.3428 49.2181 86.2478C49.2324 86.2145 49.2466 86.1812 49.2609 86.1456C49.3012 86.0481 49.1991 86.2905 49.2442 86.186C49.2727 86.1194 49.3012 86.0552 49.3297 85.9887C49.4533 85.713 49.5863 85.442 49.7359 85.1782C49.8119 85.0427 49.8951 84.9096 49.983 84.7789C50.002 84.7527 50.0186 84.7266 50.0376 84.7004C50.0661 84.66 50.1683 84.5459 50.0352 84.7004C50.0804 84.6482 50.1231 84.5935 50.1706 84.5412C50.3892 84.3011 50.4248 83.8971 50.1706 83.6641C49.9331 83.4455 49.5269 83.4074 49.2941 83.6641C48.8475 84.1585 48.5316 84.7599 48.2608 85.3636C48.0969 85.732 47.9378 86.1075 47.8071 86.4902C47.7026 86.7968 47.9283 87.1819 48.2394 87.2532C48.5839 87.3316 48.8903 87.1486 49.0019 86.8206H48.9996Z" fill="#F95555"/>
<path d="M39.6904 83.9321C39.7308 83.9702 39.7688 84.0106 39.8068 84.051C39.8282 84.0747 39.8472 84.0985 39.8662 84.1199C39.9208 84.1817 39.8472 84.1033 39.8353 84.0819C39.89 84.1817 39.966 84.2744 40.023 84.3742C40.08 84.4741 40.1251 84.5715 40.1726 84.6737C40.1845 84.7022 40.1988 84.7308 40.2106 84.7593C40.2439 84.8353 40.2011 84.7403 40.1916 84.7141C40.213 84.7735 40.2391 84.8306 40.2629 84.89C40.4506 85.3654 40.6216 85.8526 40.8924 86.2876C41.0658 86.5633 41.453 86.6964 41.7404 86.511C42.0278 86.3256 42.1466 85.9572 41.9637 85.6625C41.8995 85.5603 41.8401 85.4557 41.7879 85.3464C41.7618 85.2941 41.738 85.2441 41.7143 85.1919C41.7 85.1633 41.6881 85.1348 41.6762 85.1039C41.6382 85.0136 41.6762 85.0778 41.6857 85.1301C41.6596 85.016 41.5931 84.9019 41.5504 84.7926C41.5076 84.6832 41.4625 84.5668 41.4173 84.455C41.2083 83.944 40.9731 83.4449 40.5693 83.0551C40.3365 82.8293 39.9208 82.8055 39.6928 83.0551C39.4648 83.3047 39.4434 83.6921 39.6928 83.9321H39.6904Z" fill="#F95555"/>
<path d="M44.4204 82.8469C44.4204 83.8856 44.2874 84.9409 44.4204 85.9772C44.4418 86.1483 44.4751 86.2886 44.601 86.4169C44.7079 86.5239 44.886 86.6047 45.0404 86.5976C45.3397 86.5833 45.7055 86.3218 45.6604 85.9772C45.5274 84.9433 45.6604 83.8856 45.6604 82.8469C45.6604 82.5213 45.3754 82.2123 45.0404 82.2265C44.7055 82.2408 44.4204 82.4999 44.4204 82.8469Z" fill="#F95555"/>
<path d="M34.0059 87.8855C36.0321 87.2865 38.0488 87.2366 40.3552 87.1439C42.2033 87.0702 44.2722 87.2651 46.1227 87.3103C47.0396 87.3317 47.9541 87.384 48.8686 87.4363C50.7618 87.5432 52.7143 87.296 55.9425 88.1208" fill="#FFE3E3"/>
<path d="M34.3726 89.2168C34.7336 89.1122 35.0994 89.0195 35.47 88.9434C35.6363 88.9102 35.8026 88.8769 35.9712 88.8484C36.0377 88.8365 36.1042 88.8246 36.1731 88.8151C36.2515 88.8032 36.7099 88.72 36.3109 88.7913C37.0235 88.663 37.7694 88.6439 38.4891 88.6059C40.0569 88.5227 41.6151 88.4918 43.1829 88.5631C44.772 88.6344 46.3659 88.6844 47.955 88.7675C49.0785 88.827 50.1997 88.8388 51.3233 88.8697C51.986 88.8864 52.6464 88.9292 53.3043 89.0052L53.3946 89.0171C53.5466 89.0361 53.5158 89.0314 53.3043 89.0028C53.4065 88.9957 53.5348 89.0361 53.6369 89.0528C53.8364 89.0837 54.0336 89.1169 54.2307 89.155C54.6821 89.2405 55.131 89.3404 55.5752 89.4544C56.2736 89.6303 57.1049 89.2286 57.2712 88.4895C57.4375 87.7503 57.0551 86.9802 56.3068 86.7924C54.8531 86.4264 53.3614 86.2006 51.8625 86.1293C50.7888 86.0793 49.7104 86.1055 48.6367 86.0461C47.0025 85.9557 45.3682 85.9106 43.7339 85.8298C42.1401 85.7513 40.5628 85.7513 38.9689 85.8226C37.1779 85.9035 35.3655 86.0532 33.6362 86.5571C32.945 86.7591 32.4414 87.5387 32.6718 88.2541C32.9022 88.9696 33.6267 89.4354 34.3678 89.2191L34.3726 89.2168Z" fill="#FF8888"/>
<path d="M43.477 87.7249C41.9045 87.3327 40.3224 86.8787 38.7119 86.6743C37.7618 86.5531 36.8401 86.6577 35.9042 86.8359C35.422 86.9286 34.9208 87.0641 34.5265 87.3636C34.1322 87.6631 33.7997 88.0933 33.5122 88.514C33.0229 89.2294 32.8186 90.0185 32.7545 90.8742C32.7117 91.4351 32.7402 91.9628 33.0039 92.4762C33.2486 92.9492 33.726 93.2463 34.2035 93.4412C35.2106 93.8547 36.2629 93.6384 37.2463 93.2724C38.3913 92.847 39.5695 92.4999 40.6978 92.0317C41.8261 91.5635 42.9805 90.9693 44.0375 90.2776C44.7026 89.8426 44.0827 88.7683 43.4104 89.2056C42.5791 89.7476 41.7097 90.2301 40.8047 90.6413C39.8996 91.0524 38.9875 91.3186 38.0658 91.6395C37.2392 91.9271 36.3888 92.4001 35.4981 92.4334C35.0871 92.4476 34.6738 92.3526 34.327 92.122C34.0087 91.9081 33.9541 91.5563 33.9731 91.1951C34.0087 90.4963 34.1132 89.883 34.4719 89.3102C34.6762 88.9846 34.9256 88.6209 35.2296 88.3809C35.5123 88.1575 35.9114 88.0933 36.2582 88.0291C36.4743 87.9887 36.6929 87.9507 36.9114 87.9174C36.9803 87.9079 37.0658 87.8984 36.9399 87.9126C36.9827 87.9079 37.023 87.9031 37.0658 87.8984C37.1679 87.8865 37.2701 87.877 37.3722 87.8699C37.7642 87.8437 38.1585 87.8556 38.5504 87.8984C38.5765 87.9008 38.7618 87.9245 38.6811 87.9126C38.605 87.9031 38.7832 87.9269 38.8212 87.934C38.9637 87.9554 39.1086 87.9816 39.2512 88.0077C39.579 88.0695 39.9068 88.1384 40.2322 88.2145C41.2085 88.4355 42.18 88.6827 43.1491 88.9252C43.9235 89.1177 44.2537 87.9221 43.4793 87.7296L43.477 87.7249Z" fill="#FFE3E3"/>
<path d="M43.2025 87.9427C43.174 88.178 43.1764 88.4085 43.1692 88.6438C43.1692 88.67 43.1645 88.7009 43.1692 88.727C43.1502 88.5749 43.2001 88.5226 43.1787 88.6319C43.1645 88.6985 43.1502 88.765 43.1384 88.8316C43.1027 89.0336 43.1289 89.2309 43.1574 89.4329C43.1882 89.654 43.2452 89.8441 43.326 90.0533C43.3403 90.0913 43.3545 90.1293 43.3711 90.165C43.4187 90.2696 43.3593 90.0723 43.364 90.0485C43.3521 90.1198 43.3545 90.2007 43.3545 90.272C43.3521 90.4573 43.4377 90.7022 43.5826 90.8376C43.6372 90.8876 43.5137 90.6404 43.5469 90.7426C43.5612 90.7877 43.5778 90.8305 43.5944 90.8757C43.6277 90.9684 43.6633 91.0611 43.7108 91.1466C43.7631 91.2393 43.8201 91.3582 43.8985 91.4295C44.0196 91.5412 44.1598 91.5863 44.3118 91.622C44.6135 91.6933 45.0149 91.5293 45.0743 91.1894C45.1004 91.0302 45.1384 90.878 45.1717 90.7212C45.1978 90.5952 45.2026 90.4669 45.1931 90.3385C45.1812 90.1864 45.1598 90.4835 45.1741 90.4193C45.1859 90.367 45.1931 90.3124 45.2049 90.2577C45.2406 90.0652 45.2358 89.8845 45.2287 89.6896C45.2239 89.5732 45.2287 89.4353 45.1931 89.3236C45.1669 89.2428 45.1313 89.1643 45.098 89.0835V89.4139C45.1432 89.2452 45.2049 89.0788 45.1812 88.9005C45.1598 88.7365 45.0624 88.5749 44.9888 88.4252L45.0743 88.7389C45.0743 88.5535 45.079 88.38 45.0078 88.2041C44.9579 88.0781 44.9175 87.9522 44.8771 87.8238C44.7821 87.5148 44.4401 87.2843 44.1146 87.3912C43.7892 87.4982 43.5778 87.8214 43.6823 88.1542C43.7084 88.2374 43.7322 88.3229 43.7607 88.4038C43.7773 88.4489 43.7963 88.4917 43.813 88.5345C43.8248 88.563 43.8343 88.5987 43.851 88.6248C43.8914 88.6937 43.8415 88.4085 43.8343 88.4917C43.8201 88.6819 43.8415 88.8791 43.9199 89.0503C43.9579 89.1334 43.9982 89.2143 44.0386 89.2951L43.9769 88.8173C43.9531 88.9053 43.9246 88.9908 43.9056 89.0788C43.8605 89.2761 43.9032 89.4424 43.984 89.6159C44.0529 89.7609 43.9792 89.3878 43.984 89.5589C43.984 89.6136 43.9887 89.6706 43.9911 89.7253C43.9959 89.8132 43.9887 89.9083 44.0006 89.9939C44.0149 90.0937 44.0386 89.7871 44.0196 89.8703C44.0149 89.894 44.0101 89.9154 44.0077 89.9392C43.9982 89.9939 43.9864 90.0485 43.9769 90.1008C43.9555 90.2292 43.9412 90.3765 43.9579 90.5096C43.9697 90.6095 44.0006 90.3052 43.9769 90.386C43.9697 90.4074 43.965 90.4312 43.9602 90.455C43.9484 90.5096 43.9317 90.5619 43.9222 90.6166C43.9056 90.695 43.8937 90.7758 43.8795 90.8543L44.642 90.4217L44.5018 90.3884L44.8724 90.6736C44.8391 90.6166 44.8106 90.5405 44.7655 90.4906C44.7417 90.4645 44.8439 90.6974 44.8035 90.5786C44.7892 90.5334 44.7702 90.4882 44.756 90.4431C44.6942 90.272 44.6111 90.1436 44.509 89.9962L44.5945 90.31C44.6016 90.1674 44.6253 90.0034 44.5826 89.8631C44.5541 89.7752 44.5137 89.6896 44.4804 89.6017C44.4472 89.5137 44.4092 89.421 44.3902 89.3284C44.3759 89.2618 44.3712 89.1929 44.3593 89.1263C44.3427 89.0122 44.3783 89.3307 44.3759 89.2452C44.3759 89.219 44.3712 89.1929 44.3712 89.1691C44.3664 89.1168 44.3736 89.0479 44.3593 88.998C44.3878 89.0907 44.3213 89.2214 44.3474 89.1049C44.3546 89.0693 44.3617 89.0312 44.3688 88.9956C44.3997 88.8459 44.4139 88.6985 44.4163 88.5464C44.4211 88.3396 44.4234 88.1399 44.4472 87.9355C44.4852 87.6123 44.136 87.3009 43.8272 87.3152C43.459 87.3318 43.2476 87.5885 43.2072 87.9355L43.2025 87.9427Z" fill="#FFE3E3"/>
<path d="M44.8768 89.1901C45.7082 88.767 46.6346 88.6173 47.5396 88.4319C48.0194 88.3345 48.4992 88.2251 48.9624 88.0635C49.3924 87.9138 49.7938 87.7141 50.2356 87.5929C50.6775 87.4717 51.0813 87.398 51.5136 87.3528C51.915 87.3077 52.3664 87.234 52.7678 87.291C53.1692 87.3481 53.5398 87.5453 53.8605 87.7735C53.9222 87.8163 53.9792 87.8615 54.0363 87.9114C54.0624 87.9328 54.2168 88.0635 54.1123 87.9684C54.1526 88.0041 54.1812 88.0873 54.1336 87.9803C54.1645 88.0492 54.1812 88.1229 54.2025 88.1942C54.4662 89.0737 54.6301 90.003 54.6491 90.9252C54.6562 91.3079 54.6158 91.7024 54.3997 92.0281C54.2025 92.3252 53.8866 92.4274 53.5398 92.444C52.136 92.5082 50.8437 91.6834 49.6679 90.9418C48.2285 90.0339 46.7391 89.0285 44.9884 88.9382C44.1903 88.8978 44.1927 90.1385 44.9884 90.1789C46.5206 90.2597 47.9339 91.3198 49.2237 92.1255C50.6442 93.0144 52.2737 93.9248 54.0149 93.6324C55.1028 93.4494 55.7394 92.5177 55.8629 91.4743C55.9271 90.9442 55.8629 90.4166 55.7988 89.8889C55.7346 89.3612 55.6681 88.7813 55.5161 88.2465C55.4187 87.9019 55.3332 87.5287 55.1076 87.2435C54.8368 86.8988 54.4258 86.6279 54.0363 86.433C53.5707 86.2001 53.0576 86.0337 52.5326 86.0384C52.0077 86.0432 51.5065 86.1074 51.0005 86.1787C50.4589 86.2571 49.915 86.3688 49.4019 86.5613C48.8437 86.7729 48.3116 86.9915 47.7249 87.127C46.5419 87.4027 45.3542 87.562 44.2568 88.1205C43.9575 88.2727 43.872 88.6934 44.0335 88.9691C44.2117 89.2733 44.5822 89.3446 44.8815 89.1925L44.8768 89.1901Z" fill="#FFE3E3"/>
<path d="M42.3557 107.933C41.8901 105.304 41.6763 102.635 41.712 99.9656C41.7405 97.7385 41.8331 95.4044 42.6075 93.2914C42.9899 92.2456 43.5956 91.3068 44.4508 90.589C44.7073 90.3727 44.6741 89.933 44.4508 89.7119C44.1966 89.4576 43.8308 89.4956 43.5743 89.7119C41.8545 91.1547 41.1039 93.3865 40.7856 95.5423C40.3984 98.1711 40.3889 100.883 40.5742 103.531C40.6858 105.116 40.883 106.697 41.1609 108.263C41.2203 108.594 41.6217 108.779 41.9234 108.696C42.2702 108.601 42.4151 108.263 42.3557 107.933Z" fill="#FFE3E3"/>
<path d="M44.5373 90.1666C46.573 92.7431 47.4376 96.0231 47.9127 99.2152C48.4686 102.959 48.6111 106.774 48.8629 110.548C49.0149 112.811 49.1645 115.073 49.3166 117.336C49.3379 117.671 49.585 117.957 49.9365 117.957C50.2548 117.957 50.5803 117.671 50.5565 117.336C50.281 113.227 50.0268 109.117 49.7251 105.01C49.4638 101.457 49.2073 97.8153 48.0956 94.4069C47.4923 92.5553 46.6229 90.8226 45.4138 89.2919C45.2048 89.0281 44.7535 89.0733 44.5373 89.2919C44.2784 89.551 44.3283 89.9052 44.5373 90.169V90.1666Z" fill="#FFE3E3"/>
</g>
<path d="M60.3817 110.599C62.3681 111.235 63.9403 112.771 64.7389 114.306L76.4406 113.44L87.8987 111.758C88.1207 113.497 88.5496 115.325 89.0071 117.024C89.3403 118.262 89.7528 119.478 90.1083 120.712C90.3197 121.446 90.6652 121.981 90.9196 122.668C89.8359 127.448 87.4296 129.05 84.7051 130.198C83.2388 130.816 81.8921 131.902 80.265 132.194C78.9561 132.43 77.6411 132.585 76.3349 132.842C73.7696 133.346 70.9715 133.219 68.3546 133.219C67.0603 133.219 66.0572 134.099 64.7389 133.624C61.8701 133.624 59.0993 133.382 56.2327 133.382C53.778 133.382 53.6721 131.968 53.7191 130.339C53.7455 129.426 53.8197 128.446 53.5559 127.608C52.9757 125.766 53.2288 123.256 53.2288 121.376C53.2288 119.227 53.1327 116.852 53.5559 114.74C53.7313 113.865 53.9254 112.84 54.7456 112.258C55.5246 111.705 57.0464 110.558 58.0767 110.558C58.7478 110.558 59.7308 110.39 60.3817 110.599Z" fill="black"/>
<path d="M23.3267 87.2236C24.2162 85.5416 25.2273 83.8267 26.7673 82.6766C26.8994 82.016 28.3951 81.5768 29.0071 81.3543C30.1778 80.9286 31.5932 81.0786 32.812 81.0979C34.4489 81.1239 36.1214 81.3078 37.4535 82.3325C38.2055 82.9109 38.8136 83.8357 39.3695 84.5925C40.0303 85.4924 40.352 86.5787 40.3679 87.6958C40.3988 89.8576 40.6165 92.6483 39.1806 94.4759C37.6638 96.4063 35.5678 97.7344 33.0819 97.7344C31.6286 97.7344 30.1201 97.8507 28.6765 97.6669C28.0153 97.5828 27.6588 97.242 27.1181 96.8844C26.37 96.3894 25.5933 95.9664 24.8783 95.4204C23.3093 94.2223 22.5714 93.2534 22.6925 91.2444C22.7692 89.9723 22.7123 88.3853 23.3267 87.2236Z" fill="black" stroke="black" stroke-width="1.99759" stroke-linecap="round"/>
<path d="M7.87695 65.0635C8.06651 66.4378 8.14827 67.7544 8.14827 69.1332" stroke="#FFB218" stroke-width="2.145" stroke-linecap="round"/>
<path d="M4.0625 71.9761H6.21512" stroke="#FFB218" stroke-width="2.145" stroke-linecap="round"/>
<path d="M10.666 71.6894C11.3002 71.5859 11.8924 71.5459 12.5316 71.5459" stroke="#FFB218" stroke-width="2.145" stroke-linecap="round"/>
<path d="M8.6543 74.1294V76.856" stroke="#FFB218" stroke-width="2.145" stroke-linecap="round"/>
<path d="M131.08 113.464C131.27 114.838 131.351 116.155 131.351 117.534" stroke="#FFB218" stroke-width="2.145" stroke-linecap="round"/>
<path d="M127.266 120.376H129.418" stroke="#FFB218" stroke-width="2.145" stroke-linecap="round"/>
<path d="M133.869 120.09C134.503 119.986 135.096 119.946 135.735 119.946" stroke="#FFB218" stroke-width="2.145" stroke-linecap="round"/>
<path d="M131.857 122.527V125.254" stroke="#FFB218" stroke-width="2.145" stroke-linecap="round"/>
</g>
<defs>
<clipPath id="clip0_2108_25062">
<rect width="55.6124" height="55.8747" fill="white" transform="translate(16.3086 78.2471)"/>
</clipPath>
</defs>
</svg>
